<svg t="1725461086945" class="icon" viewBox="0 0 1024 1024" version="1.1" xmlns="http://www.w3.org/2000/svg" p-id="1463" width="200" height="200"><path d="M864 803.2l-246.4-246.4c38.4-51.2 60.8-115.2 60.8-182.4 0-169.6-137.6-310.4-310.4-310.4-169.6 0-310.4 137.6-310.4 310.4s137.6 310.4 310.4 310.4c76.8 0 144-28.8 198.4-73.6l246.4 246.4c16 16 38.4 16 54.4 0 9.6-16 9.6-41.6-3.2-54.4z m-499.2-185.6c-134.4 0-246.4-108.8-246.4-246.4S230.4 128 364.8 128s246.4 108.8 246.4 246.4-108.8 243.2-246.4 243.2z" fill="#999999" p-id="1464"></path></svg>